<?xml version="1.0" encoding="utf-8"?>
<!-- Generator: Adobe Illustrator 18.1.1, SVG Export Plug-In . SVG Version: 6.00 Build 0)  -->
<!DOCTYPE svg PUBLIC "-//W3C//DTD SVG 1.1//EN" "http://www.w3.org/Graphics/SVG/1.1/DTD/svg11.dtd">
<svg version="1.1" id="Layer_1" xmlns="http://www.w3.org/2000/svg" xmlns:xlink="http://www.w3.org/1999/xlink" x="0px" y="0px"
	 viewBox="0 0 300 31.5" enable-background="new 0 0 300 31.5" xml:space="preserve">
<g>
	<path fill="#E45740" d="M3.5,23.3c0,0,2.8,2.8,6.7,2.8c2.4,0,4.5-1.4,4.5-3.8c0-5.7-12.6-4.4-12.6-12.5c0-4.1,3.5-7.3,8.4-7.3
		c4.8,0,7.4,2.6,7.4,2.6l-1.7,3c0,0-2.4-2.3-5.7-2.3c-2.8,0-4.7,1.7-4.7,3.8c0,5.4,12.6,4,12.6,12.4c0,4-3.1,7.4-8.3,7.4
		c-5.5,0-8.7-3.4-8.7-3.4L3.5,23.3z"/>
	<path fill="#E45740" d="M23.7,3h3.7v11.5h13.5V3h3.7v26.1h-3.7V17.6H27.3v11.5h-3.7V3z"/>
	<path fill="#E45740" d="M51.6,3h15.2v3.2H55.3v8.2h9.4v3.2h-9.4v8.4h12.1v3.2H51.6V3z"/>
	<path fill="#E45740" d="M72.8,3h3.7v22.9h11.7v3.2H72.8V3z"/>
	<path fill="#E45740" d="M92.4,3H96v22.9h11.7v3.2H92.4V3z"/>
	<path fill="#E45740" d="M111.9,3h15.2v3.2h-11.5v8.2h9.4v3.2h-9.4v8.4h12.1v3.2h-15.8V3z"/>
	<path fill="#E45740" d="M138.6,18L129.9,3h4.1l4.8,8.6c0.8,1.4,1.6,3.3,1.6,3.3h0.1c0,0,0.8-1.8,1.6-3.3l4.8-8.6h4.1L142.3,18v11.1
		h-3.7V18z"/>
	<path fill="#E45740" d="M155.3,3.2h8.1c7.7,0,12.9,4.7,12.9,12.9c0,8.2-5.2,12.9-12.9,12.9h-8.1V3.2z M163.2,27.6
		c6.9,0,11.5-4,11.5-11.5c0-7.4-4.6-11.5-11.5-11.5h-6.3v22.9H163.2z"/>
	<path fill="#E45740" d="M182.7,3.2h1.6v25.9h-1.6V3.2z"/>
	<path fill="#E45740" d="M203.4,2.8c5.8,0,9,2.9,9,2.9l-1,1.2c0,0-3.1-2.6-8.1-2.6c-6.5,0-11.2,5.2-11.2,11.9
		c0,6.7,4.6,11.9,11,11.9c5.5,0,8.9-4.3,8.9-4.3v-5h-4.6v-1.5h6.2v11.8h-1.6v-2.3c0-0.6,0-1.1,0-1.1h-0.1c0,0-3.1,3.8-8.8,3.8
		c-7.2,0-12.7-5.9-12.7-13.4C190.5,8.7,196.1,2.8,203.4,2.8z"/>
	<path fill="#E45740" d="M220.3,3.2h1.5l14.8,20.3c0.9,1.2,2.1,3.3,2.1,3.3h0.1c0,0-0.2-2-0.2-3.3V3.2h1.6v25.9h-1.5L223.8,8.8
		c-0.9-1.2-2.1-3.3-2.1-3.3h-0.1c0,0,0.2,2,0.2,3.3v20.3h-1.6V3.2z"/>
	<path fill="#E45740" d="M247.7,3.2h1.6v16.9c0,4.9,3.2,7.9,8.1,7.9c4.9,0,8.1-3,8.1-8V3.2h1.6v17c0,5.7-4,9.3-9.7,9.3
		c-5.7,0-9.7-3.6-9.7-9.3V3.2z"/>
	<path fill="#E45740" d="M276,3.2h1.6l7.5,16.3c0.6,1.3,1.3,2.9,1.3,2.9h0.1c0,0,0.7-1.7,1.3-2.9l7.5-16.3h1.6l2.1,25.9h-1.6
		l-1.6-19.7c-0.1-1.3-0.1-3.4-0.1-3.4h-0.1c0,0-0.7,2.2-1.3,3.4l-7,14.8h-1.6l-6.9-14.8c-0.6-1.2-1.4-3.5-1.4-3.5h-0.1
		c0,0,0,2.3-0.1,3.5l-1.6,19.7h-1.6L276,3.2z"/>
</g>
</svg>
