<?xml version="1.0" encoding="utf-8"?>
<!-- Generator: Adobe Illustrator 18.1.1, SVG Export Plug-In . SVG Version: 6.00 Build 0)  -->
<!DOCTYPE svg PUBLIC "-//W3C//DTD SVG 1.1//EN" "http://www.w3.org/Graphics/SVG/1.1/DTD/svg11.dtd">
<svg version="1.1" id="Layer_1" xmlns="http://www.w3.org/2000/svg" xmlns:xlink="http://www.w3.org/1999/xlink" x="0px" y="0px"
	 viewBox="0 0 1150 125.7" enable-background="new 0 0 1150 125.7" xml:space="preserve">
<g>
	<path fill="#FFFFFF" d="M20.2,92.8c0,0,10.5,10.7,25.3,10.7c9.3,0,17.1-5.2,17.1-14.6c0-21.5-48-16.9-48-47.3
		c0-15.5,13.3-27.7,32-27.7c18.4,0,28.1,10,28.1,10l-6.3,11.5c0,0-9.1-8.6-21.8-8.6c-10.5,0-18,6.6-18,14.5c0,20.5,48,15,48,47.2
		c0,15.3-11.8,28-31.5,28c-21.1,0-32.9-13.1-32.9-13.1L20.2,92.8z"/>
	<path fill="#FFFFFF" d="M96.6,15.5h13.9v43.5h51.4V15.5h13.9v99.2h-13.9V71.1h-51.4v43.5H96.6V15.5z"/>
	<path fill="#FFFFFF" d="M202.8,15.5h57.6v12.1h-43.7v31h35.5v12.1h-35.5v31.9h46.1v12.1h-60V15.5z"/>
	<path fill="#FFFFFF" d="M283.3,15.5h13.9v87.1h44.4v12.1h-58.3V15.5z"/>
	<path fill="#FFFFFF" d="M357.6,15.5h13.9v87.1h44.4v12.1h-58.3V15.5z"/>
	<path fill="#FFFFFF" d="M431.9,15.5h57.6v12.1h-43.7v31h35.5v12.1h-35.5v31.9h46.1v12.1h-60V15.5z"/>
	<path fill="#FFFFFF" d="M533.3,72.7L500,15.5h15.7l18.4,32.6c3.1,5.5,6,12.5,6,12.5h0.3c0,0,3-6.9,6-12.5l18.1-32.6h15.7
		l-33.1,57.2v42h-13.9V72.7z"/>
	<path fill="#FFFFFF" d="M596.6,16.4h30.9c29.2,0,49,18,49,49.2c0,31.3-19.8,49.2-49,49.2h-30.9V16.4z M626.6,109.1
		c26.1,0,43.7-15.3,43.7-43.5c0-28.1-17.6-43.5-43.7-43.5h-23.9v87.1H626.6z"/>
	<path fill="#FFFFFF" d="M700.7,16.4h6v98.3h-6V16.4z"/>
	<path fill="#FFFFFF" d="M779.5,14.7c22.2,0,34.3,11.1,34.3,11.1l-3.7,4.6c0,0-11.8-10-30.6-10c-24.7,0-42.7,19.7-42.7,45.1
		c0,25.6,17.6,45.1,41.9,45.1c21.1,0,33.7-16.2,33.7-16.2v-19h-17.6v-5.6h23.6v44.8h-6v-8.6c0-2.1,0.1-4.2,0.1-4.2h-0.3
		c0,0-11.8,14.5-33.6,14.5c-27.4,0-48.2-22.3-48.2-50.8C730.5,37.1,751.7,14.7,779.5,14.7z"/>
	<path fill="#FFFFFF" d="M843.4,16.4h5.6l56,77.1c3.2,4.5,8,12.4,8,12.4h0.3c0,0-0.7-7.4-0.7-12.4V16.4h6v98.3h-5.6l-56-77.1
		c-3.2-4.5-8-12.4-8-12.4h-0.3c0,0,0.7,7.4,0.7,12.4v77.1h-6V16.4z"/>
	<path fill="#FFFFFF" d="M947.6,16.4h6v64.3c0,18.5,12.1,29.9,30.6,29.9c18.5,0,30.8-11.4,30.8-30.2V16.4h6V81
		c0,21.6-15,35.4-36.7,35.4c-21.6,0-36.8-13.8-36.8-35.4V16.4z"/>
	<path fill="#FFFFFF" d="M1055.1,16.4h5.9l28.7,61.8c2.2,4.8,4.8,11.1,4.8,11.1h0.3c0,0,2.5-6.3,4.8-11.1l28.7-61.8h5.9l7.9,98.3h-6
		l-6-75c-0.4-4.8-0.4-13.1-0.4-13.1h-0.3c0,0-2.8,8.3-5.1,13.1l-26.4,56h-6.2l-26.3-56c-2.1-4.6-5.2-13.3-5.2-13.3h-0.3
		c0,0,0,8.6-0.4,13.3l-6,75h-6L1055.1,16.4z"/>
</g>
</svg>
